<mxfile host="app.diagrams.net" agent="Mozilla/5.0 (Windows NT 10.0; Win64; x64) AppleWebKit/537.36 (KHTML, like Gecko) Chrome/130.0.0.0 Safari/537.36" version="24.8.6">
  <diagram id="EiI-wj-nk1MhQjO8LF0V" name="Page-1">
    <mxGraphModel dx="1050" dy="522" grid="1" gridSize="10" guides="1" tooltips="1" connect="1" arrows="1" fold="1" page="1" pageScale="1" pageWidth="850" pageHeight="1100" math="0" shadow="0">
      <root>
        <mxCell id="0" />
        <mxCell id="1" parent="0" />
        <mxCell id="kBt0Ul3egefSR8e8u-qr-2" value="" style="rounded=0;whiteSpace=wrap;html=1;" vertex="1" parent="1">
          <mxGeometry x="120" y="40" width="680" height="1650" as="geometry" />
        </mxCell>
        <mxCell id="kBt0Ul3egefSR8e8u-qr-3" value="" style="rounded=1;whiteSpace=wrap;html=1;" vertex="1" parent="1">
          <mxGeometry x="130" y="50" width="660" height="60" as="geometry" />
        </mxCell>
        <mxCell id="kBt0Ul3egefSR8e8u-qr-4" value="Home" style="rounded=0;whiteSpace=wrap;html=1;" vertex="1" parent="1">
          <mxGeometry x="270" y="60" width="100" height="40" as="geometry" />
        </mxCell>
        <mxCell id="kBt0Ul3egefSR8e8u-qr-5" value="More About Me" style="rounded=0;whiteSpace=wrap;html=1;" vertex="1" parent="1">
          <mxGeometry x="470" y="60" width="100" height="40" as="geometry" />
        </mxCell>
        <mxCell id="kBt0Ul3egefSR8e8u-qr-6" value="Optivia" style="rounded=0;whiteSpace=wrap;html=1;" vertex="1" parent="1">
          <mxGeometry x="650" y="60" width="100" height="40" as="geometry" />
        </mxCell>
        <mxCell id="kBt0Ul3egefSR8e8u-qr-7" value="" style="rounded=0;whiteSpace=wrap;html=1;" vertex="1" parent="1">
          <mxGeometry x="150" y="60" width="40" height="40" as="geometry" />
        </mxCell>
        <mxCell id="kBt0Ul3egefSR8e8u-qr-8" value="" style="endArrow=none;html=1;rounded=0;entryX=0;entryY=0;entryDx=0;entryDy=0;exitX=1;exitY=1;exitDx=0;exitDy=0;" edge="1" parent="1" source="kBt0Ul3egefSR8e8u-qr-7" target="kBt0Ul3egefSR8e8u-qr-7">
          <mxGeometry width="50" height="50" relative="1" as="geometry">
            <mxPoint x="600" y="340" as="sourcePoint" />
            <mxPoint x="650" y="290" as="targetPoint" />
          </mxGeometry>
        </mxCell>
        <mxCell id="kBt0Ul3egefSR8e8u-qr-9" value="" style="endArrow=none;html=1;rounded=0;" edge="1" parent="1">
          <mxGeometry width="50" height="50" relative="1" as="geometry">
            <mxPoint x="150" y="100" as="sourcePoint" />
            <mxPoint x="190" y="60" as="targetPoint" />
          </mxGeometry>
        </mxCell>
        <mxCell id="kBt0Ul3egefSR8e8u-qr-10" value="" style="rounded=0;whiteSpace=wrap;html=1;" vertex="1" parent="1">
          <mxGeometry x="400" y="140" width="120" height="140" as="geometry" />
        </mxCell>
        <mxCell id="kBt0Ul3egefSR8e8u-qr-11" value="" style="endArrow=none;html=1;rounded=0;exitX=0;exitY=1;exitDx=0;exitDy=0;" edge="1" parent="1" source="kBt0Ul3egefSR8e8u-qr-10">
          <mxGeometry width="50" height="50" relative="1" as="geometry">
            <mxPoint x="470" y="190" as="sourcePoint" />
            <mxPoint x="520" y="140" as="targetPoint" />
          </mxGeometry>
        </mxCell>
        <mxCell id="kBt0Ul3egefSR8e8u-qr-12" value="" style="endArrow=none;html=1;rounded=0;entryX=0;entryY=0;entryDx=0;entryDy=0;exitX=1;exitY=1;exitDx=0;exitDy=0;" edge="1" parent="1" source="kBt0Ul3egefSR8e8u-qr-10" target="kBt0Ul3egefSR8e8u-qr-10">
          <mxGeometry width="50" height="50" relative="1" as="geometry">
            <mxPoint x="600" y="340" as="sourcePoint" />
            <mxPoint x="650" y="290" as="targetPoint" />
          </mxGeometry>
        </mxCell>
        <mxCell id="kBt0Ul3egefSR8e8u-qr-13" value="................................................................................................................................................" style="rounded=0;whiteSpace=wrap;html=1;" vertex="1" parent="1">
          <mxGeometry x="140" y="480" width="640" height="270" as="geometry" />
        </mxCell>
        <mxCell id="kBt0Ul3egefSR8e8u-qr-14" value="........................................" style="rounded=0;whiteSpace=wrap;html=1;" vertex="1" parent="1">
          <mxGeometry x="140" y="300" width="640" height="60" as="geometry" />
        </mxCell>
        <mxCell id="kBt0Ul3egefSR8e8u-qr-15" value="Question 1" style="rounded=0;whiteSpace=wrap;html=1;" vertex="1" parent="1">
          <mxGeometry x="400" y="390" width="120" height="60" as="geometry" />
        </mxCell>
        <mxCell id="kBt0Ul3egefSR8e8u-qr-16" value="Question 3" style="rounded=0;whiteSpace=wrap;html=1;" vertex="1" parent="1">
          <mxGeometry x="400" y="1160" width="120" height="60" as="geometry" />
        </mxCell>
        <mxCell id="kBt0Ul3egefSR8e8u-qr-17" value="Question 2" style="rounded=0;whiteSpace=wrap;html=1;" vertex="1" parent="1">
          <mxGeometry x="400" y="780" width="120" height="60" as="geometry" />
        </mxCell>
        <mxCell id="kBt0Ul3egefSR8e8u-qr-18" value="................................................................................................................................................" style="rounded=0;whiteSpace=wrap;html=1;" vertex="1" parent="1">
          <mxGeometry x="140" y="1240" width="640" height="270" as="geometry" />
        </mxCell>
        <mxCell id="kBt0Ul3egefSR8e8u-qr-19" value="................................................................................................................................................" style="rounded=0;whiteSpace=wrap;html=1;" vertex="1" parent="1">
          <mxGeometry x="140" y="860" width="640" height="270" as="geometry" />
        </mxCell>
        <mxCell id="kBt0Ul3egefSR8e8u-qr-21" value="" style="rounded=0;whiteSpace=wrap;html=1;" vertex="1" parent="1">
          <mxGeometry x="540" y="1610" width="60" height="60" as="geometry" />
        </mxCell>
        <mxCell id="kBt0Ul3egefSR8e8u-qr-22" value="" style="rounded=0;whiteSpace=wrap;html=1;" vertex="1" parent="1">
          <mxGeometry x="630" y="1610" width="60" height="60" as="geometry" />
        </mxCell>
        <mxCell id="kBt0Ul3egefSR8e8u-qr-23" value="" style="rounded=0;whiteSpace=wrap;html=1;" vertex="1" parent="1">
          <mxGeometry x="720" y="1610" width="60" height="60" as="geometry" />
        </mxCell>
        <mxCell id="kBt0Ul3egefSR8e8u-qr-26" value="" style="endArrow=none;html=1;rounded=0;entryX=0;entryY=0;entryDx=0;entryDy=0;exitX=1;exitY=1;exitDx=0;exitDy=0;" edge="1" parent="1" source="kBt0Ul3egefSR8e8u-qr-21" target="kBt0Ul3egefSR8e8u-qr-21">
          <mxGeometry width="50" height="50" relative="1" as="geometry">
            <mxPoint x="480" y="1640" as="sourcePoint" />
            <mxPoint x="530" y="1590" as="targetPoint" />
          </mxGeometry>
        </mxCell>
        <mxCell id="kBt0Ul3egefSR8e8u-qr-27" value="" style="endArrow=none;html=1;rounded=0;exitX=0;exitY=1;exitDx=0;exitDy=0;" edge="1" parent="1" source="kBt0Ul3egefSR8e8u-qr-23">
          <mxGeometry width="50" height="50" relative="1" as="geometry">
            <mxPoint x="730" y="1660" as="sourcePoint" />
            <mxPoint x="780" y="1610" as="targetPoint" />
          </mxGeometry>
        </mxCell>
        <mxCell id="kBt0Ul3egefSR8e8u-qr-28" value="" style="endArrow=none;html=1;rounded=0;exitX=0;exitY=1;exitDx=0;exitDy=0;" edge="1" parent="1" source="kBt0Ul3egefSR8e8u-qr-22">
          <mxGeometry width="50" height="50" relative="1" as="geometry">
            <mxPoint x="640" y="1660" as="sourcePoint" />
            <mxPoint x="690" y="1610" as="targetPoint" />
          </mxGeometry>
        </mxCell>
        <mxCell id="kBt0Ul3egefSR8e8u-qr-29" value="" style="endArrow=none;html=1;rounded=0;exitX=0;exitY=1;exitDx=0;exitDy=0;" edge="1" parent="1" source="kBt0Ul3egefSR8e8u-qr-21">
          <mxGeometry width="50" height="50" relative="1" as="geometry">
            <mxPoint x="550" y="1660" as="sourcePoint" />
            <mxPoint x="600" y="1610" as="targetPoint" />
          </mxGeometry>
        </mxCell>
        <mxCell id="kBt0Ul3egefSR8e8u-qr-30" value="" style="endArrow=none;html=1;rounded=0;entryX=0;entryY=0;entryDx=0;entryDy=0;exitX=1;exitY=1;exitDx=0;exitDy=0;" edge="1" parent="1">
          <mxGeometry width="50" height="50" relative="1" as="geometry">
            <mxPoint x="780" y="1670" as="sourcePoint" />
            <mxPoint x="720" y="1610" as="targetPoint" />
          </mxGeometry>
        </mxCell>
        <mxCell id="kBt0Ul3egefSR8e8u-qr-31" value="" style="endArrow=none;html=1;rounded=0;entryX=0;entryY=0;entryDx=0;entryDy=0;exitX=1;exitY=1;exitDx=0;exitDy=0;" edge="1" parent="1">
          <mxGeometry width="50" height="50" relative="1" as="geometry">
            <mxPoint x="690" y="1670" as="sourcePoint" />
            <mxPoint x="630" y="1610" as="targetPoint" />
          </mxGeometry>
        </mxCell>
        <mxCell id="kBt0Ul3egefSR8e8u-qr-32" value="Copy Right" style="rounded=0;whiteSpace=wrap;html=1;" vertex="1" parent="1">
          <mxGeometry x="140" y="1610" width="350" height="60" as="geometry" />
        </mxCell>
      </root>
    </mxGraphModel>
  </diagram>
</mxfile>
